<svg width="256" height="256" viewBox="0 0 256 256" fill="none" xmlns="http://www.w3.org/2000/svg">
  <rect width="256" height="256" rx="64" fill="url(#bg)"/>
  <rect x="44" y="56" width="168" height="156" rx="28" fill="#F8FBFF"/>
  <path d="M44 92C44 76.536 56.536 64 72 64H184C199.464 64 212 76.536 212 92V108H44V92Z" fill="#1D4ED8"/>
  <rect x="76" y="40" width="20" height="40" rx="10" fill="#0F172A"/>
  <rect x="160" y="40" width="20" height="40" rx="10" fill="#0F172A"/>
  <rect x="68" y="126" width="120" height="56" rx="20" fill="#DBEAFE"/>
  <path d="M84 161L104 141L122 158L172 122" stroke="#1D4ED8" stroke-width="16" stroke-linecap="round" stroke-linejoin="round"/>
  <circle cx="80" cy="118" r="8" fill="#FBBF24"/>
  <circle cx="128" cy="118" r="8" fill="#FBBF24"/>
  <circle cx="176" cy="118" r="8" fill="#FBBF24"/>
  <defs>
    <linearGradient id="bg" x1="28" y1="18" x2="230" y2="238" gradientUnits="userSpaceOnUse">
      <stop stop-color="#0F172A"/>
      <stop offset="1" stop-color="#2563EB"/>
    </linearGradient>
  </defs>
</svg>
